# xmcd CD database file
#
# Track frame offsets:
#	150
#	9475
#	19850
#	33425
#	46800
#	61675
#	74800
#	88000
#	102500
#	118550
#	127250
#	143825
#	162225
#	172400
#	183275
#	192275
#	204950
#	216725
#
# Disc length: 3029 seconds
#
# Revision: 1
# Processed by: cddbd v1.5.2PL0 Copyright (c) Steve Scherf et al.
# Submitted via: CDex 1.51
#
DISCID=0f0bd312
DTITLE=Dave Dudley - Portrait
DYEAR=1991
DGENRE=Country
TTITLE0=Keep On Truckin'
TTITLE1=Two Sixpacks Away
TTITLE2=George Ans The Northwoods
TTITLE3=Where Did Everybody Go
TTITLE4=Pick 'Em Up
TTITLE5=Girl On The Billboard
TTITLE6=Rolaids, Doan's Pills And Preparation H
TTITLE7=Driver
TTITLE8=Eagle
TTITLE9=John Henry
TTITLE10=The Last Run
TTITLE11=Cowboy You're America
TTITLE12=Truck Drivin' Son-Of-A-Gun
TTITLE13=A Trucker's Prayer
TTITLE14=Truck Drivin' Man
TTITLE15=Maybe I Can
TTITLE16=Listen Betty, I'm Singing Your Song
TTITLE17=King Of The Road
EXTD=YEAR: 1991
EXTT0=
EXTT1=
EXTT2=
EXTT3=
EXTT4=
EXTT5=
EXTT6=
EXTT7=
EXTT8=
EXTT9=
EXTT10=
EXTT11=
EXTT12=
EXTT13=
EXTT14=
EXTT15=
EXTT16=
EXTT17=
PLAYORDER=
